<mxfile host="app.diagrams.net" agent="Mozilla/5.0 (Macintosh; Intel Mac OS X 10_15_7) AppleWebKit/537.36 (KHTML, like Gecko) Chrome/138.0.0.0 Safari/537.36" version="28.0.7">
  <diagram name="Page-1" id="_loqRK9usO6gleROTSlI">
    <mxGraphModel dx="2275" dy="-1406" grid="1" gridSize="10" guides="1" tooltips="1" connect="1" arrows="1" fold="1" page="1" pageScale="1" pageWidth="850" pageHeight="1100" math="0" shadow="0">
      <root>
        <mxCell id="0" />
        <mxCell id="1" parent="0" />
        <mxCell id="QgA3izjE_mY8pZIgnn4d-31" value="Composition" style="edgeStyle=orthogonalEdgeStyle;rounded=0;orthogonalLoop=1;jettySize=auto;html=1;entryX=0.5;entryY=1;entryDx=0;entryDy=0;" parent="1" source="QgA3izjE_mY8pZIgnn4d-32" target="gNF1ruejhhysIF4IgIq5-34" edge="1">
          <mxGeometry relative="1" as="geometry">
            <mxPoint x="130" y="2660" as="targetPoint" />
          </mxGeometry>
        </mxCell>
        <mxCell id="QgA3izjE_mY8pZIgnn4d-57" value="Composition" style="edgeStyle=orthogonalEdgeStyle;rounded=0;orthogonalLoop=1;jettySize=auto;html=1;exitX=1;exitY=0.5;exitDx=0;exitDy=0;entryX=0.5;entryY=1;entryDx=0;entryDy=0;" parent="1" source="QgA3izjE_mY8pZIgnn4d-32" target="QgA3izjE_mY8pZIgnn4d-56" edge="1">
          <mxGeometry relative="1" as="geometry" />
        </mxCell>
        <mxCell id="QgA3izjE_mY8pZIgnn4d-32" value="&lt;p style=&quot;margin:0px;margin-top:4px;text-align:center;&quot;&gt;&lt;i&gt;&lt;b&gt;ToolManager&lt;/b&gt;&lt;/i&gt;&lt;/p&gt;&lt;hr size=&quot;1&quot; style=&quot;border-style:solid;&quot;&gt;&lt;p style=&quot;margin:0px;margin-left:4px;&quot;&gt;&lt;span style=&quot;background-color: transparent; color: light-dark(rgb(0, 0, 0), rgb(255, 255, 255));&quot;&gt;&amp;nbsp;- _tool_resources: Array[ToolResource]&lt;/span&gt;&lt;/p&gt;&lt;p style=&quot;margin:0px;margin-left:4px;&quot;&gt;&lt;span style=&quot;background-color: transparent; color: light-dark(rgb(0, 0, 0), rgb(255, 255, 255));&quot;&gt;&amp;nbsp;- _selected_tool_idx: int&lt;/span&gt;&lt;/p&gt;&lt;p style=&quot;margin:0px;margin-left:4px;&quot;&gt;&amp;nbsp;- _blend_point_idx_map: Dictionary[String, int]&lt;/p&gt;&lt;hr size=&quot;1&quot; style=&quot;border-style:solid;&quot;&gt;&lt;p style=&quot;margin:0px;margin-left:4px;&quot;&gt;+ set_selected_tool(slot_position: int, anim_tree: AnimationTree): void&lt;/p&gt;&lt;p style=&quot;margin:0px;margin-left:4px;&quot;&gt;+ get_selected_tool(): BaseToolResource&lt;/p&gt;&lt;p style=&quot;margin:0px;margin-left:4px;&quot;&gt;+ get_all_tools(): Array[BaseToolResouce]&lt;/p&gt;&lt;p style=&quot;margin:0px;margin-left:4px;&quot;&gt;+ add_new_tool(tool: BaseToolResouce): bool&lt;/p&gt;&lt;p style=&quot;margin:0px;margin-left:4px;&quot;&gt;+&amp;nbsp;is_tool_selected(): bool&lt;/p&gt;&lt;p style=&quot;margin:0px;margin-left:4px;&quot;&gt;+ swap_slots(idx1: int, idx2: int): void&lt;/p&gt;&lt;p style=&quot;margin:0px;margin-left:4px;&quot;&gt;+ set_tool_animation(anim_tree: AnimationTree, lib_idx: int)&lt;/p&gt;&lt;p style=&quot;margin:0px;margin-left:4px;&quot;&gt;+ set_blend_point_idx_mapping(anim_tree: AnimationTree)&lt;/p&gt;" style="verticalAlign=top;align=left;overflow=fill;html=1;whiteSpace=wrap;" parent="1" vertex="1">
          <mxGeometry x="-70" y="2735.63" width="400" height="204.37" as="geometry" />
        </mxCell>
        <mxCell id="QgA3izjE_mY8pZIgnn4d-45" value="Inheritance" style="edgeStyle=orthogonalEdgeStyle;rounded=0;orthogonalLoop=1;jettySize=auto;html=1;exitX=0.5;exitY=1;exitDx=0;exitDy=0;entryX=0.5;entryY=0;entryDx=0;entryDy=0;" parent="1" source="QgA3izjE_mY8pZIgnn4d-44" target="QgA3izjE_mY8pZIgnn4d-47" edge="1">
          <mxGeometry x="0.0018" relative="1" as="geometry">
            <mxPoint x="-110" y="2995" as="targetPoint" />
            <Array as="points">
              <mxPoint x="-315" y="2890" />
              <mxPoint x="-315" y="2940" />
              <mxPoint x="-195" y="2940" />
            </Array>
            <mxPoint as="offset" />
          </mxGeometry>
        </mxCell>
        <mxCell id="QgA3izjE_mY8pZIgnn4d-49" value="Inheritance" style="edgeStyle=orthogonalEdgeStyle;rounded=0;orthogonalLoop=1;jettySize=auto;html=1;exitX=0.5;exitY=1;exitDx=0;exitDy=0;entryX=0.5;entryY=0;entryDx=0;entryDy=0;" parent="1" source="QgA3izjE_mY8pZIgnn4d-44" target="QgA3izjE_mY8pZIgnn4d-48" edge="1">
          <mxGeometry relative="1" as="geometry" />
        </mxCell>
        <mxCell id="QgA3izjE_mY8pZIgnn4d-55" value="Composition" style="edgeStyle=orthogonalEdgeStyle;rounded=0;orthogonalLoop=1;jettySize=auto;html=1;exitX=1;exitY=0.5;exitDx=0;exitDy=0;entryX=0;entryY=0.5;entryDx=0;entryDy=0;" parent="1" source="QgA3izjE_mY8pZIgnn4d-44" target="QgA3izjE_mY8pZIgnn4d-32" edge="1">
          <mxGeometry relative="1" as="geometry" />
        </mxCell>
        <mxCell id="QgA3izjE_mY8pZIgnn4d-44" value="&lt;p style=&quot;margin:0px;margin-top:4px;text-align:center;&quot;&gt;&lt;i&gt;&amp;lt;&amp;lt;&lt;/i&gt;&lt;i&gt;Resource&lt;/i&gt;&lt;i&gt;&amp;gt;&amp;gt;&lt;/i&gt;&lt;br&gt;&lt;b&gt;ToolResource&lt;/b&gt;&lt;/p&gt;&lt;hr size=&quot;1&quot; style=&quot;border-style:solid;&quot;&gt;&lt;p style=&quot;margin:0px;margin-left:4px;&quot;&gt;&lt;span style=&quot;background-color: transparent; color: light-dark(rgb(0, 0, 0), rgb(255, 255, 255));&quot;&gt;+ name: String&lt;/span&gt;&lt;/p&gt;&lt;p style=&quot;margin: 0px 0px 0px 4px;&quot;&gt;+ texture: Texture2D&lt;/p&gt;&lt;p style=&quot;margin: 0px 0px 0px 4px;&quot;&gt;+ cooldown_sec: float&lt;/p&gt;&lt;p style=&quot;margin: 0px 0px 0px 4px;&quot;&gt;+ animation_libs: Arrary[AnimationLibrary]&lt;/p&gt;&lt;hr size=&quot;1&quot; style=&quot;border-style:solid;&quot;&gt;&lt;p style=&quot;margin:0px;margin-left:4px;&quot;&gt;+ use_tool() virtual: void&lt;/p&gt;" style="verticalAlign=top;align=left;overflow=fill;html=1;whiteSpace=wrap;" parent="1" vertex="1">
          <mxGeometry x="-520" y="2767.81" width="300" height="140" as="geometry" />
        </mxCell>
        <mxCell id="QgA3izjE_mY8pZIgnn4d-53" value="Inheritance" style="edgeStyle=orthogonalEdgeStyle;rounded=0;orthogonalLoop=1;jettySize=auto;html=1;entryX=0.5;entryY=0;entryDx=0;entryDy=0;" parent="1" source="QgA3izjE_mY8pZIgnn4d-47" target="QgA3izjE_mY8pZIgnn4d-52" edge="1">
          <mxGeometry relative="1" as="geometry" />
        </mxCell>
        <mxCell id="QgA3izjE_mY8pZIgnn4d-54" value="Inheritance" style="edgeStyle=orthogonalEdgeStyle;rounded=0;orthogonalLoop=1;jettySize=auto;html=1;entryX=0.5;entryY=0;entryDx=0;entryDy=0;" parent="1" source="QgA3izjE_mY8pZIgnn4d-47" target="QgA3izjE_mY8pZIgnn4d-51" edge="1">
          <mxGeometry relative="1" as="geometry" />
        </mxCell>
        <mxCell id="QgA3izjE_mY8pZIgnn4d-47" value="&lt;p style=&quot;margin:0px;margin-top:4px;text-align:center;&quot;&gt;&lt;i&gt;&amp;lt;&amp;lt;Resource&amp;gt;&amp;gt;&lt;/i&gt;&lt;br&gt;&lt;b&gt;WeaponResource&lt;/b&gt;&lt;/p&gt;&lt;hr size=&quot;1&quot; style=&quot;border-style:solid;&quot;&gt;&lt;p style=&quot;margin: 0px 0px 0px 4px;&quot;&gt;&lt;span style=&quot;background-color: transparent; color: light-dark(rgb(0, 0, 0), rgb(255, 255, 255));&quot;&gt;+ damage: int&lt;/span&gt;&lt;/p&gt;&lt;p style=&quot;margin: 0px 0px 0px 4px;&quot;&gt;+ knockback_mag: float&lt;/p&gt;&lt;hr size=&quot;1&quot; style=&quot;border-style:solid;&quot;&gt;&lt;p style=&quot;margin: 0px 0px 0px 4px;&quot;&gt;&lt;br&gt;&lt;/p&gt;" style="verticalAlign=top;align=left;overflow=fill;html=1;whiteSpace=wrap;" parent="1" vertex="1">
          <mxGeometry x="-290" y="2970" width="190" height="105" as="geometry" />
        </mxCell>
        <mxCell id="QgA3izjE_mY8pZIgnn4d-48" value="&lt;p style=&quot;margin:0px;margin-top:4px;text-align:center;&quot;&gt;&lt;i&gt;&amp;lt;&amp;lt;Resource&amp;gt;&amp;gt;&lt;/i&gt;&lt;br&gt;&lt;b&gt;HarvestingToolResource&lt;/b&gt;&lt;/p&gt;&lt;hr size=&quot;1&quot; style=&quot;border-style:solid;&quot;&gt;&lt;p style=&quot;margin: 0px 0px 0px 4px;&quot;&gt;&lt;span style=&quot;background-color: transparent; color: light-dark(rgb(0, 0, 0), rgb(255, 255, 255));&quot;&gt;+ efficiency: float&lt;/span&gt;&lt;/p&gt;&lt;hr size=&quot;1&quot; style=&quot;border-style:solid;&quot;&gt;&lt;p style=&quot;margin: 0px 0px 0px 4px;&quot;&gt;+use_tool() override: void&lt;/p&gt;&lt;p style=&quot;margin: 0px 0px 0px 4px;&quot;&gt;&lt;br&gt;&lt;/p&gt;" style="verticalAlign=top;align=left;overflow=fill;html=1;whiteSpace=wrap;" parent="1" vertex="1">
          <mxGeometry x="-690" y="2995" width="190" height="95" as="geometry" />
        </mxCell>
        <mxCell id="QgA3izjE_mY8pZIgnn4d-51" value="&lt;p style=&quot;margin:0px;margin-top:4px;text-align:center;&quot;&gt;&lt;i&gt;&amp;lt;&amp;lt;Resource&amp;gt;&amp;gt;&lt;/i&gt;&lt;br&gt;&lt;b&gt;MeleeWeaponResource&lt;/b&gt;&lt;/p&gt;&lt;hr size=&quot;1&quot; style=&quot;border-style:solid;&quot;&gt;&lt;p style=&quot;margin: 0px 0px 0px 4px;&quot;&gt;&lt;span style=&quot;background-color: transparent; color: light-dark(rgb(0, 0, 0), rgb(255, 255, 255));&quot;&gt;&lt;br&gt;&lt;/span&gt;&lt;/p&gt;&lt;hr size=&quot;1&quot; style=&quot;border-style:solid;&quot;&gt;&lt;p style=&quot;margin: 0px 0px 0px 4px;&quot;&gt;+ use_tool() override: void&lt;/p&gt;" style="verticalAlign=top;align=left;overflow=fill;html=1;whiteSpace=wrap;" parent="1" vertex="1">
          <mxGeometry x="-410" y="3145" width="190" height="90" as="geometry" />
        </mxCell>
        <mxCell id="QgA3izjE_mY8pZIgnn4d-52" value="&lt;p style=&quot;margin:0px;margin-top:4px;text-align:center;&quot;&gt;&lt;i&gt;&amp;lt;&amp;lt;Resource&amp;gt;&amp;gt;&lt;/i&gt;&lt;br&gt;&lt;b&gt;RangedWeaponResource&lt;/b&gt;&lt;/p&gt;&lt;hr size=&quot;1&quot; style=&quot;border-style:solid;&quot;&gt;&lt;p style=&quot;margin: 0px 0px 0px 4px;&quot;&gt;+ projectile_scene: PackedScene&lt;/p&gt;&lt;p style=&quot;margin: 0px 0px 0px 4px;&quot;&gt;+ projectile_speed: float&lt;/p&gt;&lt;p style=&quot;margin: 0px 0px 0px 4px;&quot;&gt;+ max_range: float&lt;/p&gt;&lt;hr size=&quot;1&quot; style=&quot;border-style:solid;&quot;&gt;&lt;p style=&quot;margin: 0px 0px 0px 4px;&quot;&gt;+ use_tool() override: void&lt;/p&gt;" style="verticalAlign=top;align=left;overflow=fill;html=1;whiteSpace=wrap;" parent="1" vertex="1">
          <mxGeometry x="-210" y="3145" width="190" height="120" as="geometry" />
        </mxCell>
        <mxCell id="QgA3izjE_mY8pZIgnn4d-56" value="&lt;p style=&quot;margin:0px;margin-top:4px;text-align:center;&quot;&gt;&lt;i&gt;&lt;b&gt;ToolBarUi&lt;/b&gt;&lt;/i&gt;&lt;/p&gt;&lt;hr size=&quot;1&quot; style=&quot;border-style:solid;&quot;&gt;&lt;p style=&quot;margin:0px;margin-left:4px;&quot;&gt;&lt;span style=&quot;background-color: transparent; color: light-dark(rgb(0, 0, 0), rgb(255, 255, 255));&quot;&gt;&amp;nbsp;-&lt;/span&gt;&lt;span style=&quot;background-color: transparent; color: light-dark(rgb(0, 0, 0), rgb(255, 255, 255));&quot;&gt;&amp;nbsp;_toolbar: ToolBar&lt;/span&gt;&lt;span style=&quot;background-color: transparent; color: light-dark(rgb(0, 0, 0), rgb(255, 255, 255));&quot;&gt;&lt;br&gt;&lt;/span&gt;&lt;/p&gt;&lt;hr size=&quot;1&quot; style=&quot;border-style:solid;&quot;&gt;&lt;p style=&quot;margin:0px;margin-left:4px;&quot;&gt;&lt;br&gt;&lt;/p&gt;" style="verticalAlign=top;align=left;overflow=fill;html=1;whiteSpace=wrap;" parent="1" vertex="1">
          <mxGeometry x="340" y="2660" width="300" height="80" as="geometry" />
        </mxCell>
        <mxCell id="gNF1ruejhhysIF4IgIq5-3" value="" style="edgeStyle=orthogonalEdgeStyle;rounded=0;orthogonalLoop=1;jettySize=auto;html=1;" parent="1" source="gNF1ruejhhysIF4IgIq5-1" target="gNF1ruejhhysIF4IgIq5-2" edge="1">
          <mxGeometry relative="1" as="geometry" />
        </mxCell>
        <mxCell id="gNF1ruejhhysIF4IgIq5-1" value="Create new local animation library in the AnimationPlayer" style="ellipse;whiteSpace=wrap;html=1;" parent="1" vertex="1">
          <mxGeometry x="192.5" y="3400" width="190" height="100" as="geometry" />
        </mxCell>
        <mxCell id="gNF1ruejhhysIF4IgIq5-5" value="" style="edgeStyle=orthogonalEdgeStyle;rounded=0;orthogonalLoop=1;jettySize=auto;html=1;" parent="1" source="gNF1ruejhhysIF4IgIq5-2" target="gNF1ruejhhysIF4IgIq5-4" edge="1">
          <mxGeometry relative="1" as="geometry" />
        </mxCell>
        <mxCell id="gNF1ruejhhysIF4IgIq5-2" value="Create new tool animations for each direction" style="rounded=1;whiteSpace=wrap;html=1;" parent="1" vertex="1">
          <mxGeometry x="227.5" y="3535" width="120" height="60" as="geometry" />
        </mxCell>
        <mxCell id="gNF1ruejhhysIF4IgIq5-13" value="" style="edgeStyle=orthogonalEdgeStyle;rounded=0;orthogonalLoop=1;jettySize=auto;html=1;" parent="1" source="gNF1ruejhhysIF4IgIq5-4" target="gNF1ruejhhysIF4IgIq5-12" edge="1">
          <mxGeometry relative="1" as="geometry" />
        </mxCell>
        <mxCell id="gNF1ruejhhysIF4IgIq5-4" value="Ensure the animation names has the direction string in it" style="rounded=1;whiteSpace=wrap;html=1;" parent="1" vertex="1">
          <mxGeometry x="227.5" y="3635" width="120" height="60" as="geometry" />
        </mxCell>
        <mxCell id="gNF1ruejhhysIF4IgIq5-15" value="" style="edgeStyle=orthogonalEdgeStyle;rounded=0;orthogonalLoop=1;jettySize=auto;html=1;" parent="1" source="gNF1ruejhhysIF4IgIq5-6" target="gNF1ruejhhysIF4IgIq5-10" edge="1">
          <mxGeometry relative="1" as="geometry" />
        </mxCell>
        <mxCell id="gNF1ruejhhysIF4IgIq5-6" value="Export animation library to the FileSystem" style="rounded=1;whiteSpace=wrap;html=1;" parent="1" vertex="1">
          <mxGeometry x="227.5" y="3875" width="120" height="60" as="geometry" />
        </mxCell>
        <mxCell id="gNF1ruejhhysIF4IgIq5-10" value="Assign the animation library to the tool resource in the inspector" style="ellipse;whiteSpace=wrap;html=1;" parent="1" vertex="1">
          <mxGeometry x="190" y="3975" width="195" height="100" as="geometry" />
        </mxCell>
        <mxCell id="gNF1ruejhhysIF4IgIq5-14" value="" style="edgeStyle=orthogonalEdgeStyle;rounded=0;orthogonalLoop=1;jettySize=auto;html=1;" parent="1" source="gNF1ruejhhysIF4IgIq5-12" target="gNF1ruejhhysIF4IgIq5-6" edge="1">
          <mxGeometry relative="1" as="geometry" />
        </mxCell>
        <mxCell id="gNF1ruejhhysIF4IgIq5-12" value="Each library should have a max of 4 animations for each direction. Multiple animation for a tool requires multiple libraries." style="rounded=1;whiteSpace=wrap;html=1;" parent="1" vertex="1">
          <mxGeometry x="207.5" y="3725" width="160" height="110" as="geometry" />
        </mxCell>
        <mxCell id="gNF1ruejhhysIF4IgIq5-16" value="&lt;b&gt;Creating Tool Animations&lt;/b&gt;" style="text;html=1;align=center;verticalAlign=middle;resizable=0;points=[];autosize=1;strokeColor=none;fillColor=none;" parent="1" vertex="1">
          <mxGeometry x="197.5" y="3350" width="170" height="30" as="geometry" />
        </mxCell>
        <mxCell id="gNF1ruejhhysIF4IgIq5-17" value="&lt;b&gt;Creating Tool&lt;/b&gt;" style="text;html=1;align=center;verticalAlign=middle;resizable=0;points=[];autosize=1;strokeColor=none;fillColor=none;" parent="1" vertex="1">
          <mxGeometry x="-355" y="3390" width="100" height="30" as="geometry" />
        </mxCell>
        <mxCell id="gNF1ruejhhysIF4IgIq5-33" value="" style="edgeStyle=orthogonalEdgeStyle;rounded=0;orthogonalLoop=1;jettySize=auto;html=1;" parent="1" source="gNF1ruejhhysIF4IgIq5-21" target="gNF1ruejhhysIF4IgIq5-32" edge="1">
          <mxGeometry relative="1" as="geometry" />
        </mxCell>
        <mxCell id="gNF1ruejhhysIF4IgIq5-21" value="Create a new resource of the desired tool type in the FileSystem (.tres)&amp;nbsp;" style="rounded=1;whiteSpace=wrap;html=1;" parent="1" vertex="1">
          <mxGeometry x="-402.5" y="3720" width="195" height="70" as="geometry" />
        </mxCell>
        <mxCell id="gNF1ruejhhysIF4IgIq5-27" value="Yes" style="edgeStyle=orthogonalEdgeStyle;rounded=0;orthogonalLoop=1;jettySize=auto;html=1;entryX=0.5;entryY=0;entryDx=0;entryDy=0;" parent="1" source="gNF1ruejhhysIF4IgIq5-23" target="gNF1ruejhhysIF4IgIq5-24" edge="1">
          <mxGeometry relative="1" as="geometry" />
        </mxCell>
        <mxCell id="gNF1ruejhhysIF4IgIq5-31" value="No" style="edgeStyle=orthogonalEdgeStyle;rounded=0;orthogonalLoop=1;jettySize=auto;html=1;" parent="1" source="gNF1ruejhhysIF4IgIq5-23" target="gNF1ruejhhysIF4IgIq5-21" edge="1">
          <mxGeometry relative="1" as="geometry" />
        </mxCell>
        <mxCell id="gNF1ruejhhysIF4IgIq5-23" value="New type of tool?" style="rhombus;whiteSpace=wrap;html=1;" parent="1" vertex="1">
          <mxGeometry x="-375" y="3440" width="140" height="70" as="geometry" />
        </mxCell>
        <mxCell id="gNF1ruejhhysIF4IgIq5-30" style="edgeStyle=orthogonalEdgeStyle;rounded=0;orthogonalLoop=1;jettySize=auto;html=1;entryX=1;entryY=0.5;entryDx=0;entryDy=0;" parent="1" source="gNF1ruejhhysIF4IgIq5-24" target="gNF1ruejhhysIF4IgIq5-21" edge="1">
          <mxGeometry relative="1" as="geometry" />
        </mxCell>
        <mxCell id="gNF1ruejhhysIF4IgIq5-24" value="Create a new class, inherit from any ToolResource class, and override virtual methods" style="rounded=1;whiteSpace=wrap;html=1;" parent="1" vertex="1">
          <mxGeometry x="-260" y="3590" width="200" height="75" as="geometry" />
        </mxCell>
        <mxCell id="b3SMdrg9AmwqVpzEfQq1-2" value="" style="edgeStyle=orthogonalEdgeStyle;rounded=0;orthogonalLoop=1;jettySize=auto;html=1;" edge="1" parent="1" source="gNF1ruejhhysIF4IgIq5-32" target="b3SMdrg9AmwqVpzEfQq1-1">
          <mxGeometry relative="1" as="geometry" />
        </mxCell>
        <mxCell id="gNF1ruejhhysIF4IgIq5-32" value="Assign data to the resource in the inspector" style="rounded=1;whiteSpace=wrap;html=1;" parent="1" vertex="1">
          <mxGeometry x="-402.5" y="3835" width="195" height="70" as="geometry" />
        </mxCell>
        <mxCell id="gNF1ruejhhysIF4IgIq5-34" value="&lt;p style=&quot;margin:0px;margin-top:4px;text-align:center;&quot;&gt;&lt;i&gt;&lt;b&gt;Player&lt;/b&gt;&lt;/i&gt;&lt;/p&gt;&lt;hr size=&quot;1&quot; style=&quot;border-style:solid;&quot;&gt;&lt;p style=&quot;margin:0px;margin-left:4px;&quot;&gt;&lt;span style=&quot;background-color: transparent; color: light-dark(rgb(0, 0, 0), rgb(255, 255, 255));&quot;&gt;&amp;nbsp;- _tool_manager: ToolManager&lt;/span&gt;&lt;span style=&quot;background-color: transparent; color: light-dark(rgb(0, 0, 0), rgb(255, 255, 255));&quot;&gt;&lt;br&gt;&lt;/span&gt;&lt;/p&gt;&lt;hr size=&quot;1&quot; style=&quot;border-style:solid;&quot;&gt;&lt;p style=&quot;margin:0px;margin-left:4px;&quot;&gt;&lt;br&gt;&lt;/p&gt;" style="verticalAlign=top;align=left;overflow=fill;html=1;whiteSpace=wrap;" parent="1" vertex="1">
          <mxGeometry x="-20" y="2590" width="300" height="80" as="geometry" />
        </mxCell>
        <mxCell id="b3SMdrg9AmwqVpzEfQq1-1" value="Assign resource to Tool Manager in Inspector" style="rounded=1;whiteSpace=wrap;html=1;" vertex="1" parent="1">
          <mxGeometry x="-402.5" y="3950" width="195" height="70" as="geometry" />
        </mxCell>
      </root>
    </mxGraphModel>
  </diagram>
</mxfile>
